<svg xmlns="http://www.w3.org/2000/svg" viewBox="0 0 600 140" fill="#FFFFFF">
  <circle cx="38" cy="22" r="18"/>
  <path d="M0 128V55h16v-8c0-16.5 8-26 26-26h12v22H42c-6 0-10 3-10 10v2h22v22H32v51H0zM62 55h30v8c6-7 14-11 24-11 4 0 7 .5 10 1.5V78c-4-2-8-3-13-3-12 0-21 7-21 20v33H62V55zM186 97h-62c2 12 10 18 22 18 8 0 15-3 20-9l18 14c-9 11-22 17-39 17-30 0-50-20-50-47s20-47 47-47c26 0 45 19 45 47 0 2 0 5-1 7zm-62-18h34c-2-11-8-17-17-17s-15 6-17 17zM244 97h-62c2 12 10 18 22 18 8 0 15-3 20-9l18 14c-9 11-22 17-39 17-30 0-50-20-50-47s20-47 47-47c26 0 45 19 45 47 0 2 0 5-1 7zm-62-18h34c-2-11-8-17-17-17s-15 6-17 17zM247 55h31l15 44 16-44h30l16 44 15-44h30l-32 73h-28l-17-46-17 46h-28zM400 55h30v73h-30V55zm15-10c-10 0-18-7-18-17s8-17 18-17 18 7 18 17-8 17-18 17zM440 128V16h30v112h-30zM480 128V16h30v112h-30z"/>
</svg>
