<svg xmlns="http://www.w3.org/2000/svg" viewBox="0 0 600 125" fill="#181A20">
<path d="M0 0 C2.64 0 5.28 0 8 0 C13.62258977 11.04330464 18.91260631 22.20110734 24 33.5 C24.68590896 35.01705776 25.37210583 36.53398538 26.05859375 38.05078125 C27.70903003 41.6990391 29.35563727 45.34900088 31 49 C33.89546966 46.10453034 34.92058362 42.4962112 36.37109375 38.73828125 C36.69408951 37.91426315 37.01708527 37.09024506 37.34986877 36.24125671 C38.38402513 33.60023976 39.41099983 30.95650102 40.4375 28.3125 C41.46183898 25.68692319 42.48765806 23.06193199 43.51441956 20.43730164 C44.1528127 18.80403328 44.78957037 17.17012441 45.42442322 15.53547668 C45.71805252 14.78167221 46.01168182 14.02786774 46.31420898 13.2512207 C46.6948777 12.27098686 46.6948777 12.27098686 47.08323669 11.27095032 C48.33906796 8.16008147 49.6784834 5.08353872 51 2 C57.6 2 64.2 2 71 2 C70.12545641 6.37271794 69.00340016 9.64711472 67.25390625 13.703125 C66.97096207 14.36234955 66.68801788 15.0215741 66.39649963 15.70077515 C65.45679502 17.88602648 64.50986595 20.06806029 63.5625 22.25 C62.90128274 23.78163158 62.24031764 25.31337205 61.57958984 26.84521484 C59.3956948 31.90086578 57.19888154 36.95085258 55 42 C54.59888 42.9216394 54.19776001 43.84327881 53.78448486 44.79284668 C50.90519726 51.40672593 48.01739742 58.01684481 45.125 64.625 C44.52535934 65.99718689 44.52535934 65.99718689 43.91360474 67.39709473 C42.78090082 69.98721587 41.64491972 72.575872 40.5078125 75.1640625 C40.16682022 75.94470062 39.82582794 76.72533875 39.47450256 77.52963257 C37.11486296 82.88513704 37.11486296 82.88513704 36 84 C33.32941149 84.14115161 30.67567762 84.04247107 28 84 C22.34531635 72.84438543 16.89099304 61.59524848 11.48168945 50.3190918 C10.94503662 49.20058838 10.40838379 48.08208496 9.85546875 46.9296875 C9.37746826 45.93179199 8.89946777 44.93389648 8.40698242 43.90576172 C6.96326447 40.92413218 5.48765469 37.9599189 4 35 C1.84919911 39.56730941 -0.30125418 44.13478228 -2.45141602 48.70239258 C-3.17951577 50.2489846 -3.90770268 51.79553558 -4.63598633 53.34204102 C-9.44402385 63.55206962 -14.23496526 73.76982753 -19 84 C-21.97 84 -24.94 84 -28 84 C-35.28350437 67.91307077 -42.43883655 51.77548107 -49.4375 35.5625 C-49.93854248 34.40181503 -49.93854248 34.40181503 -50.44970703 33.21768188 C-52.04102937 29.52942412 -53.62964218 25.84002799 -55.21435547 22.14892578 C-56.40241754 19.38293712 -57.59997409 16.62135476 -58.80517578 13.86279297 C-59.22791527 12.89030861 -59.22791527 12.89030861 -59.65919495 11.8981781 C-60.42167185 10.14459992 -61.18740441 8.39243836 -61.95336914 6.64038086 C-63 4 -63 4 -63 2 C-56.4 2 -49.8 2 -43 2 C-38.5 11 -38.5 11 -37.07714844 14.58007812 C-36.59710358 15.78041687 -36.59710358 15.78041687 -36.10736084 17.00500488 C-35.77802551 17.83866577 -35.44869019 18.67232666 -35.109375 19.53125 C-34.75989807 20.40777222 -34.41042114 21.28429443 -34.050354 22.18737793 C-32.94695921 24.9569613 -31.84840416 27.72843411 -30.75 30.5 C-29.99771634 32.39075255 -29.24511521 34.28137883 -28.4921875 36.171875 C-26.65778616 40.77979873 -24.82771946 45.38942207 -23 50 C-17.27583541 38.82569997 -12.01529969 27.50816666 -7 16 C-6.31417934 14.43473049 -5.62798287 12.86962557 -4.94140625 11.3046875 C-3.28995945 7.53832991 -1.64351961 3.7698231 0 0 Z " transform="translate(414,41)"/>
<path d="M0 0 C8.7990871 6.40649096 13.42342762 13.85399612 16 24.375 C16.60325215 31.46321276 16.25611127 36.29111054 14.25 43.3125 C-4.89 43.3125 -24.03 43.3125 -43.75 43.3125 C-39.96814497 51.82167382 -37.26435519 56.52950672 -29 60.1875 C-20.11794778 63.02292436 -12.7233501 61.39921849 -4.37890625 57.69921875 C-1.73976759 56.4030322 -1.73976759 56.4030322 0.41015625 54.64453125 C2.25 53.3125 2.25 53.3125 5.25 53.3125 C7.109375 55.32421875 7.109375 55.32421875 9 58 C9.63421875 58.87011719 10.2684375 59.74023438 10.921875 60.63671875 C12.25 63.3125 12.25 63.3125 12.19921875 65.953125 C11.03258696 68.85290113 9.94052968 69.7168934 7.3125 71.375 C6.24708984 72.07302734 6.24708984 72.07302734 5.16015625 72.78515625 C-3.26247934 77.20562674 -10.14499839 78.95846561 -19.6875 78.8125 C-21.19860352 78.83570312 -21.19860352 78.83570312 -22.74023438 78.859375 C-35.43147282 78.79408245 -44.30816038 74.19493027 -53.46484375 65.7265625 C-62.0438245 56.7764808 -64.08504293 44.78061692 -63.9609375 32.87890625 C-63.2968848 21.65149672 -57.85284927 11.47921807 -49.65625 3.83984375 C-35.59292235 -7.42810935 -15.5442982 -9.6364146 0 0 Z M-39.2734375 18.46875 C-41.63548853 21.41818938 -43.75 24.44702911 -43.75 28.3125 C-30.22 28.3125 -16.69 28.3125 -2.75 28.3125 C-3.84420684 21.74725894 -5.35112219 18.58512108 -10.125 14.0625 C-20.41136596 7.20492269 -31.28938342 9.86492917 -39.2734375 18.46875 Z " transform="translate(237.75,46.6875)"/>
<path d="M0 0 C8.30558427 6.37164365 12.41529713 13.30025665 14.87890625 23.44140625 C15.109375 27.265625 15.109375 27.265625 15.06640625 31.12890625 C15.05996094 32.41152344 15.05351562 33.69414063 15.046875 35.015625 C14.87890625 38.44140625 14.87890625 38.44140625 13.87890625 42.44140625 C-5.59109375 42.44140625 -25.06109375 42.44140625 -45.12109375 42.44140625 C-39.84122145 53.29526042 -39.84122145 53.29526042 -30.43359375 59.25390625 C-22.41521593 61.91142576 -14.95862839 60.96852141 -7.34375 57.6015625 C-5.34847921 56.56009427 -3.57004201 55.44086903 -1.74609375 54.12890625 C0.87890625 52.44140625 0.87890625 52.44140625 2.80859375 52.51953125 C5.78234729 53.8436932 6.85580033 55.81014917 8.62890625 58.50390625 C9.2425 59.42300781 9.85609375 60.34210938 10.48828125 61.2890625 C10.9471875 61.99933594 11.40609375 62.70960937 11.87890625 63.44140625 C10.4094961 67.09485772 8.5188833 68.76367583 5.31640625 71.00390625 C4.51074219 71.58269531 3.70507812 72.16148438 2.875 72.7578125 C-4.86876395 77.10926265 -12.13276951 77.99623356 -20.93359375 77.94140625 C-21.99586182 77.93568604 -23.05812988 77.92996582 -24.15258789 77.92407227 C-32.16695824 77.7412981 -38.2607954 76.84361724 -45.12109375 72.44140625 C-45.93320312 71.93351562 -46.7453125 71.425625 -47.58203125 70.90234375 C-55.91197629 65.06307995 -62.15564861 56.50077113 -64.12109375 46.44140625 C-66.09263141 32.49153472 -64.77610159 20.60130568 -56.3671875 9.02734375 C-42.55491287 -7.65900015 -18.33387915 -12.4077768 0 0 Z M-41.12109375 18.44140625 C-43.9110488 22.66174554 -43.9110488 22.66174554 -45.12109375 27.44140625 C-31.59109375 27.44140625 -18.06109375 27.44140625 -4.12109375 27.44140625 C-5.20458441 19.85697161 -6.51340762 17.22950748 -12.12109375 12.44140625 C-22.41702389 6.50144656 -33.54272427 9.80782077 -41.12109375 18.44140625 Z " transform="translate(331.12109375,47.55859375)"/>
<path d="M0 0 C1.01707031 0.00193359 2.03414062 0.00386719 3.08203125 0.00585938 C4.65791016 0.02422852 4.65791016 0.02422852 6.265625 0.04296875 C7.33167969 0.04361328 8.39773437 0.04425781 9.49609375 0.04492188 C17.37524524 0.09008899 17.37524524 0.09008899 18.515625 1.23046875 C18.58882121 3.92701729 18.60805037 6.59738333 18.578125 9.29296875 C18.57361328 10.05158203 18.56910156 10.81019531 18.56445312 11.59179688 C18.5526318 13.47138746 18.53469578 15.35093774 18.515625 17.23046875 C17.80277344 17.20726563 17.08992188 17.1840625 16.35546875 17.16015625 C10.6779906 17.0531782 5.79529701 17.03060541 0.515625 19.23046875 C-4.07244919 23.66560713 -3.69505524 30.02257638 -4.046875 36.04296875 C-4.19125 38.41484375 -4.335625 40.78671875 -4.484375 43.23046875 C1.785625 43.23046875 8.055625 43.23046875 14.515625 43.23046875 C14.515625 48.51046875 14.515625 53.79046875 14.515625 59.23046875 C8.245625 59.23046875 1.975625 59.23046875 -4.484375 59.23046875 C-4.484375 80.68046875 -4.484375 102.13046875 -4.484375 124.23046875 C-10.424375 124.23046875 -16.364375 124.23046875 -22.484375 124.23046875 C-22.484375 102.78046875 -22.484375 81.33046875 -22.484375 59.23046875 C-26.444375 59.23046875 -30.404375 59.23046875 -34.484375 59.23046875 C-34.484375 53.95046875 -34.484375 48.67046875 -34.484375 43.23046875 C-30.524375 43.23046875 -26.564375 43.23046875 -22.484375 43.23046875 C-22.53078125 41.61398438 -22.5771875 39.9975 -22.625 38.33203125 C-22.66254497 36.17319571 -22.69894218 34.01433999 -22.734375 31.85546875 C-22.76789063 30.79457031 -22.80140625 29.73367187 -22.8359375 28.640625 C-22.93709251 20.39649154 -21.80891813 13.35475287 -16.51953125 6.79296875 C-15.86855469 6.27734375 -15.21757813 5.76171875 -14.546875 5.23046875 C-13.89847656 4.69421875 -13.25007813 4.15796875 -12.58203125 3.60546875 C-8.45794384 0.90215634 -4.90948876 -0.02166701 0 0 Z " transform="translate(93.484375,-0.23046875)"/>
<path d="M0 0 C5.94 0 11.88 0 18 0 C18 40.59 18 81.18 18 123 C12.06 123 6.12 123 0 123 C0 82.41 0 41.82 0 0 Z " transform="translate(582,1)"/>
<path d="M0 0 C5.94 0 11.88 0 18 0 C18 40.59 18 81.18 18 123 C12.06 123 6.12 123 0 123 C0 82.41 0 41.82 0 0 Z " transform="translate(541,1)"/>
<path d="M0 0 C0 5.61 0 11.22 0 17 C-2.6915625 17.12375 -2.6915625 17.12375 -5.4375 17.25 C-12.53798977 17.85358355 -18.31178557 19.31178557 -23.4375 24.4375 C-25.99621006 28.6337845 -27.2425134 32.14211422 -27.31884766 37.06567383 C-27.33871735 38.04631302 -27.35858704 39.02695221 -27.37905884 40.03730774 C-27.39638565 41.60632088 -27.39638565 41.60632088 -27.4140625 43.20703125 C-27.43342865 44.28756271 -27.4527948 45.36809418 -27.4727478 46.48136902 C-27.53242103 49.9249996 -27.57888041 53.36866383 -27.625 56.8125 C-27.66319101 59.15040502 -27.7022434 61.48829615 -27.7421875 63.82617188 C-27.83811271 69.55066805 -27.92218944 75.2752301 -28 81 C-34.27 81 -40.54 81 -47 81 C-47 54.27 -47 27.54 -47 0 C-41.06 0 -35.12 0 -29 0 C-28.67 1.98 -28.34 3.96 -28 6 C-27.50371094 5.66226563 -27.00742188 5.32453125 -26.49609375 4.9765625 C-19.26166623 0.22682451 -8.50279373 -4.25139687 0 0 Z " transform="translate(167,43)"/>
<path d="M0 0 C6.70015867 3.73468059 10.49372222 8.7272604 12.8984375 15.94140625 C13.51345091 23.87608741 14.02137985 31.43921019 8.8984375 37.94140625 C3.4261006 44.13677211 -2.89486713 46.46645677 -10.9765625 47.37890625 C-17.23677131 47.06652058 -23.53067912 45.18174748 -28.2890625 41.03515625 C-34.86080876 33.69670626 -35.7286463 27.74189119 -35.47265625 18.09375 C-35.15283826 12.97552409 -33.82195251 9.5371899 -30.1015625 5.94140625 C-21.60674166 -1.52874749 -10.87856158 -3.71295993 0 0 Z " transform="translate(35.1015625,57.05859375)"/>
<path d="M0 0 C6.27 0 12.54 0 19 0 C19 26.73 19 53.46 19 81 C12.73 81 6.46 81 0 81 C0 54.27 0 27.54 0 0 Z " transform="translate(499,43)"/>
<path d="M0 0 C4.05089226 1.92593927 6.11202591 4.57151995 8.4375 8.3125 C9.56888918 13.71802606 9.97084976 18.78304109 7.375 23.8125 C3.82458862 28.57752581 0.48718101 30.97896782 -5.375 31.9375 C-11.05764329 32.30997578 -15.2162074 30.9824877 -19.83203125 27.6953125 C-23.74837532 24.00826258 -24.442957 20.75922363 -24.625 15.4375 C-24.36756511 10.22294684 -23.75691742 6.85845572 -20 3 C-14.00395936 -1.42999067 -7.08443906 -0.94764881 0 0 Z " transform="translate(516,0)"/>
</svg>
